<svg version="1.2" xmlns="http://www.w3.org/2000/svg" viewBox="0 0 1558 1558" width="1558" height="1558">
	<title>CSR21_Ita-1-pdf-svg</title>
	<defs>

		<linearGradient id="g1" x1="682.3" y1="865.6" x2="1236.9" y2="1420.3" gradientUnits="userSpaceOnUse">
			<stop offset="0" stop-color="#0096d6"/>
			<stop offset=".393" stop-color="#0096d6"/>
			<stop offset=".622" stop-color="#0067b2"/>
			<stop offset=".958" stop-color="#005a9b"/>
			<stop offset="1" stop-color="#005a9b"/>
		</linearGradient>
		<linearGradient id="g2" x1="1117" y1="430.9" x2="1671.7" y2="985.6" gradientUnits="userSpaceOnUse">
			<stop offset="0" stop-color="#0096d6"/>
			<stop offset=".393" stop-color="#0096d6"/>
			<stop offset=".622" stop-color="#0067b2"/>
			<stop offset=".958" stop-color="#005a9b"/>
			<stop offset="1" stop-color="#005a9b"/>
		</linearGradient>
		<linearGradient id="g3" x1="854.7" y1="693.3" x2="1409.3" y2="1247.9" gradientUnits="userSpaceOnUse">
			<stop offset="0" stop-color="#0096d6"/>
			<stop offset=".393" stop-color="#0096d6"/>
			<stop offset=".622" stop-color="#0067b2"/>
			<stop offset=".958" stop-color="#005a9b"/>
			<stop offset="1" stop-color="#005a9b"/>
		</linearGradient>
		<linearGradient id="g4" x1="476.2" y1="1073.7" x2="1030.8" y2="1626.4" gradientUnits="userSpaceOnUse">
			<stop offset="0" stop-color="#0096d6"/>
			<stop offset=".393" stop-color="#0096d6"/>
			<stop offset=".622" stop-color="#0067b2"/>
			<stop offset=".958" stop-color="#005a9b"/>
			<stop offset="1" stop-color="#005a9b"/>
		</linearGradient>
		<linearGradient id="g5" x1="984" y1="565.9" x2="1538.6" y2="1120.5" gradientUnits="userSpaceOnUse">
			<stop offset="0" stop-color="#0096d6"/>
			<stop offset=".393" stop-color="#0096d6"/>
			<stop offset=".622" stop-color="#0067b2"/>
			<stop offset=".958" stop-color="#005a9b"/>
			<stop offset="1" stop-color="#005a9b"/>
		</linearGradient>
		<linearGradient id="g6" x1="226.9" y1="228.6" x2="1023.3" y2="1025" gradientUnits="userSpaceOnUse">
			<stop offset="0" stop-color="#ffed00"/>
			<stop offset=".004" stop-color="#ffed00"/>
			<stop offset=".293" stop-color="#ffd500"/>
			<stop offset=".686" stop-color="#e84e0f"/>
			<stop offset="1" stop-color="#e84e0f"/>
		</linearGradient>
		<linearGradient id="g7" x1="226.9" y1="228.6" x2="1023.3" y2="1025" gradientUnits="userSpaceOnUse">
			<stop offset="0" stop-color="#ffed00"/>
			<stop offset=".004" stop-color="#ffed00"/>
			<stop offset=".293" stop-color="#ffd500"/>
			<stop offset=".686" stop-color="#e84e0f"/>
			<stop offset="1" stop-color="#e84e0f"/>
		</linearGradient>
	</defs>
	<style>
		.s0 { fill: url(#g1) } 
		.s1 { fill: url(#g2) } 
		.s2 { fill: url(#g3) } 
		.s3 { fill: url(#g4) } 
		.s4 { fill: url(#g5) } 
		.s5 { fill: url(#g6) } 
		.s6 { fill: #ffffff } 
		.s7 { fill: url(#g7) } 
	</style>
	<g id="Clip-Path: Page 1" clip-path="url(#cp1)">
		<g id="Page 1">
			<path id="Path 6" class="s0" d="m1120.8 1476.5c73-35.6 138.6-80.6 196.7-136.8l-172.4-181.7z"/>
			<path id="Path 7" class="s1" d="m1330.6 329.8c0 191.1-50.6 371-140.5 526.5l251.1-252.9q2.8-2.9 5.6 0 2.8 2.8 0 5.6l-224.9 341 328-71.2q7.5-48.7 7.5-101.2c0-217.3-88.1-412.2-232.4-554.6q5.6 52.4 5.6 106.8z"/>
			<path id="Path 8" class="s2" d="m1345.6 1311.6q61.9-67.4 108.7-146.1l-234.2-56.2z"/>
			<path id="Path 9" class="s3" d="m307.5 1395.9c129.3 101.2 294.2 161.2 472.2 161.2 103.1 0 200.5-20.6 292.3-58.1l-18.7-342.9-290.5 294.2q-2.8 2.8-5.6 0c-1.9 0-1.9-1.9-1.9-3.8l204.3-307.3c-178 151.8-404.8 247.4-652.1 256.7z"/>
			<path id="Path 10" class="s4" d="m1250.1 1030.6l228.6 86.2c30-60 50.6-123.7 63.7-191.2z"/>
			<path id="Path 11" class="s5" d="m0.2 777.6c0 232.3 101.1 440.3 262.3 582.7 253 0 483.5-91.8 661.5-241.7l-530.3 114.3c-1.9 0-3.8 0-3.8-1.9-1.8-3.7 0-5.6 1.9-5.6l560.3-198.6-554.7-211.7c-3.7 0-3.7-3.8-3.7-5.6 1.8-1.9 3.7-1.9 5.6-1.9l582.8 138.6-219.3-346.6c-1.8 0-1.8-3.7 0-3.7q2.8-2.9 5.7 0l288.5 303.5 48.8-661.4c0-1.9 1.8-3.8 3.7-1.9q3.8 0 3.8 3.7l33.7 620.3c91.8-155.6 146.2-337.3 146.2-530.3q0-75-11.3-146.2c-134.9-114.3-311.1-183.6-502.2-183.6-431 0-779.5 348.5-779.5 777.6z"/>
			<path id="Path 13" class="s6" d="m1147 860.1l-33.7-620.3q0-3.7-3.8-5.6c-1.9 0-3.7 1.9-3.7 3.8l-48.8 661.4-288.5-303.5q-2.9-2.9-5.7 0c-1.8 0-1.8 3.7 0 5.6l219.3 344.7-582.8-138.6c-1.9 0-3.8 0-5.6 1.9 0 1.8 0 3.7 3.7 5.6l554.7 211.7-560.3 198.6c-1.9 0-3.7 1.9-1.9 5.6 0 1.9 1.9 1.9 3.8 1.9l530.3-114.3c88.1-73.1 163-161.1 223-258.5z"/>
			<path id="Path 13" class="s7" d="m0.2 777.6c0 232.3 101.1 440.3 262.3 582.7 569.7 0 1030.7-460.9 1030.7-1030.5q0-75-11.3-146.2c-134.9-114.3-311.1-183.6-502.2-183.6-431 0-779.5 348.5-779.5 777.6z"/>
			<path id="Path 15" class="s6" d="m1549.9 878.8l-328 71.2 224.9-341q2.8-2.8 0-5.6-2.8-2.9-5.6 0l-251.1 252.9c89.9-155.5 140.5-335.4 140.5-526.5q0-54.4-5.6-106.8-20.6-20.6-43.1-39.4 11.3 71.2 11.3 146.2c0 193-54.4 374.7-146.2 530.3l-33.7-620.3q0-3.7-3.8-5.6c-1.9 0-3.7 1.9-3.7 3.8l-48.8 661.4-288.5-303.5q-2.9-2.9-5.7 0c-1.8 0-1.8 3.7 0 3.7l219.3 346.6-582.8-138.6c-1.9 0-3.8 0-5.6 1.9 0 1.8 0 3.7 3.7 5.6l554.7 211.7-560.3 198.6c-1.9 0-3.7 1.9-1.9 5.6 0 1.9 1.9 1.9 3.8 1.9l530.3-114.3c-178 149.9-408.5 241.7-661.5 241.7q20.6 18.8 45 35.6c247.3-9.3 474.1-104.9 652.1-256.7l-204.3 307.3c0 1.9 0 3.8 1.9 3.8q2.8 2.8 5.6 0l290.5-294.2 18.7 342.9q24.4-9.4 48.8-22.5l24.3-318.5 172.4 181.7q15-15 28.1-30l-125.5-200.4 234.2 56.2q13.1-22.5 24.4-48.7l-228.6-86.2 292.3-105q5.6-22.5 7.5-46.8z"/>
		</g>
	</g>
</svg>