<svg xmlns="http://www.w3.org/2000/svg" height="800" width="1200" viewBox="-28.75875 -68.84575 249.2425 413.0745"><path d="M11.253 254.205H.003v-1h3.375V238.08H.503v-1h2.804c.56 0 1.26-.031 2.1-.094.84-.063 1.726-.156 2.659-.281l.021 16.5h3.166zm-8.375-25.927c0-.701.237-1.295.713-1.781.475-.486 1.067-.729 1.776-.729.695 0 1.287.243 1.776.729.489.486.734 1.08.734 1.781 0 .701-.245 1.292-.734 1.771a2.445 2.445 0 01-1.776.719c-.709 0-1.302-.239-1.776-.719-.476-.479-.713-1.07-.713-1.771zm20.37 25.927H12.81v-1h3V238.08h-3v-1h2.827c.559 0 1.254-.031 2.086-.094a48.177 48.177 0 002.667-.281v3.93h.406c.832-1.353 1.75-2.346 2.754-2.979s2.158-.95 3.464-.95c1.792 0 3.144.425 4.055 1.273.91.849 1.366 2.114 1.366 3.798v11.429h2.75v1H25.06v-1h2.625v-12.247c0-1.062-.154-1.775-.462-2.142-.308-.365-.854-.549-1.641-.549-1.273 0-2.438.686-3.497 2.056-1.059 1.371-1.588 2.917-1.588 4.639v8.243h2.75v.999zm29.856-5.5h1.076c-.518 2.006-1.439 3.528-2.767 4.567-1.327 1.038-3.024 1.558-5.091 1.558-2.396 0-4.385-.834-5.963-2.502-1.578-1.668-2.367-3.74-2.367-6.217 0-2.691.86-4.932 2.583-6.722 1.722-1.789 3.903-2.685 6.544-2.685 1.938 0 3.487.423 4.649 1.268s1.744 1.976 1.744 3.392c0 .702-.208 1.268-.624 1.697-.416.429-.976.644-1.679.644-.732 0-1.317-.211-1.755-.634-.438-.423-.656-.979-.656-1.667 0-.631.189-1.189.57-1.678.38-.487.57-.753.57-.796 0-.387-.233-.688-.699-.902-.467-.215-1.116-.323-1.948-.323-1.464 0-2.525.448-3.186 1.345s-.989 2.341-.989 4.333v6.416c0 1.302.337 2.289 1.012 2.961.674.672 1.671 1.008 2.991 1.008 1.349 0 2.59-.482 3.724-1.447a6.917 6.917 0 002.261-3.616zm3.916 5.5v-1h3V238.08h-3v-1h2.827c.547 0 1.241-.031 2.084-.094a46.369 46.369 0 002.668-.281l.022 4.282h.345c.728-1.435 1.584-2.507 2.568-3.217s2.104-1.065 3.359-1.065c.97 0 1.743.255 2.321.764.578.51.867 1.194.867 2.055 0 .732-.204 1.32-.61 1.765-.406.445-.945.667-1.615.667-.814 0-1.428-.172-1.842-.516-.414-.344-.62-.854-.62-1.527v-.388c0-.301-.036-.523-.107-.667-.071-.143-.178-.215-.32-.215-1.014 0-1.978.663-2.891 1.988s-1.369 2.775-1.369 4.352v8.223h3.875v1H57.02zm34.846-5.5h1.057c-.545 2.021-1.49 3.547-2.837 4.578-1.347 1.03-3.065 1.547-5.156 1.547-2.406 0-4.416-.834-6.027-2.502-1.611-1.668-2.417-3.711-2.417-6.131 0-2.591.823-4.82 2.471-6.689 1.647-1.868 3.639-2.803 5.974-2.803 2.291 0 4.196.71 5.715 2.128 1.519 1.419 2.278 3.203 2.278 5.353v.395h-11.25v5.219c0 1.201.351 2.163 1.052 2.886.701.723 1.638 1.083 2.811 1.083 1.474 0 2.783-.457 3.928-1.373 1.142-.917 1.943-2.146 2.401-3.691zm-3.881-5.375v-2.354c0-1.098-.257-1.907-.771-2.428-.514-.521-1.306-.781-2.375-.781-1.057 0-1.849.268-2.376.803-.527.535-.791 1.337-.791 2.406v2.354zm26.904 9.875h2.813v1h-2.813c-.543 0-1.228.035-2.055.108-.828.071-1.705.164-2.633.279v-2.396h-.623c-.676.885-1.444 1.545-2.306 1.98-.862.436-1.84.653-2.932.653-2.227 0-4.109-.866-5.646-2.599s-2.306-3.887-2.306-6.464c0-2.605.782-4.767 2.349-6.485 1.566-1.718 3.521-2.577 5.862-2.577 1.049 0 1.972.209 2.77.626.797.418 1.563 1.094 2.295 2.028h.537v-13.592h-2.813v-1h2.77c.557 0 1.252-.04 2.087-.121a64.7 64.7 0 002.644-.316zm-4.731-5.281v-4.658c0-1.416-.541-2.708-1.621-3.874-1.081-1.166-2.271-1.75-3.567-1.75-1.239 0-2.114.372-2.626 1.116-.512.744-.768 2.133-.768 4.164v6.14c0 1.676.244 2.889.734 3.641.49.752 1.275 1.127 2.356 1.127 1.499 0 2.789-.555 3.87-1.664 1.08-1.109 1.621-2.494 1.621-4.155v-.087zm20.662 6.281h-11.25v-1h3.375V238.08h-2.875v-1h2.804c.56 0 1.26-.031 2.1-.094.84-.063 1.726-.156 2.659-.281l.021 16.5h3.166zm-8.375-25.927c0-.701.237-1.295.713-1.781.475-.486 1.067-.729 1.776-.729.695 0 1.287.243 1.776.729.489.486.734 1.08.734 1.781 0 .701-.245 1.292-.734 1.771a2.445 2.445 0 01-1.776.719c-.709 0-1.302-.239-1.776-.719-.475-.479-.713-1.07-.713-1.771zm17.603 26.271l-2.829-.259h-.107a59.514 59.514 0 00-3.357-.086c-.144 0-.366.007-.667.021-.302.014-.538.021-.71.021v-1.043h3v-27.438h-3v-1h2.827c.557 0 1.253-.04 2.089-.121a64.366 64.366 0 002.646-.316v15.029h.628c.748-.949 1.514-1.629 2.297-2.039.783-.41 1.7-.615 2.751-.615 2.344 0 4.307.859 5.889 2.577 1.582 1.719 2.373 3.88 2.373 6.485 0 2.563-.777 4.714-2.33 6.453-1.553 1.74-3.444 2.609-5.673 2.609-1.093 0-2.063-.218-2.912-.653-.849-.435-1.618-1.096-2.308-1.98h-.606v2.355zm0-6.625c0 1.676.548 3.078 1.646 4.209 1.098 1.131 2.397 1.696 3.899 1.696 1.024 0 1.797-.361 2.316-1.085.52-.723.78-1.814.78-3.275v-6.547c0-2.031-.261-3.42-.78-4.164-.519-.744-1.4-1.116-2.642-1.116-1.285 0-2.477.584-3.574 1.75s-1.646 2.458-1.646 3.874v4.658zm19.699-22.157h-3.375v-1h3.289c.559 0 1.262-.04 2.107-.121a64.157 64.157 0 002.666-.316v28.875h3.188v1h-11.25v-1h3.375zm25.188 22.938h1.057c-.545 2.021-1.49 3.547-2.837 4.578-1.347 1.03-3.065 1.547-5.156 1.547-2.406 0-4.416-.834-6.027-2.502-1.611-1.668-2.417-3.711-2.417-6.131 0-2.591.823-4.82 2.471-6.689 1.647-1.868 3.639-2.803 5.974-2.803 2.291 0 4.196.71 5.715 2.128 1.519 1.419 2.278 3.203 2.278 5.353v.395h-11.25v5.219c0 1.201.351 2.163 1.052 2.886.701.723 1.638 1.083 2.811 1.083 1.474 0 2.783-.457 3.928-1.373 1.142-.917 1.943-2.146 2.401-3.691zm-3.881-5.375v-2.354c0-1.098-.257-1.907-.771-2.428-.514-.521-1.306-.781-2.375-.781-1.057 0-1.849.268-2.376.803-.527.535-.791 1.337-.791 2.406v2.354zM42.376 275.164V263.32h-4.438v-1.594h10.656v1.594h-4.438v11.844zm8.146 0v-13.438h9.719v1.594h-7.938v4.094h7.438v1.594h-7.438v4.563h8.25v1.594H50.522zm22.077-4.719l1.781.447c-.374 1.46-1.046 2.573-2.017 3.34-.971.767-2.158 1.15-3.56 1.15-1.452 0-2.632-.295-3.542-.884-.91-.589-1.602-1.441-2.076-2.558a9.109 9.109 0 01-.712-3.597c0-1.397.268-2.616.805-3.656.536-1.04 1.299-1.831 2.29-2.371.991-.54 2.08-.81 3.269-.81 1.349 0 2.482.342 3.402 1.026.919.685 1.56 1.647 1.922 2.888l-1.75.411c-.313-.974-.767-1.683-1.361-2.127-.594-.444-1.343-.667-2.244-.667-1.036 0-1.902.246-2.598.739a3.907 3.907 0 00-1.467 1.986 7.947 7.947 0 00-.423 2.571c0 1.139.167 2.132.5 2.981.333.849.852 1.484 1.556 1.904.704.42 1.466.63 2.287.63.997 0 1.842-.286 2.534-.858.691-.57 1.159-1.419 1.404-2.545zm4.053 4.719v-13.438h1.781v5.5h6.969v-5.5h1.781v13.438h-1.781v-6.344h-6.969v6.344zm13.49 0v-13.438h1.838l7.068 10.548v-10.548h1.719v13.438h-1.838l-7.068-10.549v10.549zm13.021-6.541c0-2.226.601-3.968 1.804-5.227 1.203-1.259 2.756-1.889 4.658-1.889 1.246 0 2.369.295 3.369.887a5.816 5.816 0 012.288 2.474c.524 1.059.787 2.258.787 3.6 0 1.359-.276 2.576-.829 3.649-.553 1.073-1.335 1.886-2.348 2.438a6.737 6.737 0 01-3.276.828c-1.271 0-2.406-.305-3.406-.915a5.882 5.882 0 01-2.274-2.497 7.525 7.525 0 01-.773-3.348zm1.844.022c0 1.614.437 2.885 1.311 3.813.874.928 1.971 1.393 3.289 1.393 1.344 0 2.449-.47 3.317-1.407.867-.938 1.302-2.268 1.302-3.99 0-1.09-.186-2.041-.557-2.854-.371-.813-.914-1.442-1.629-1.89-.715-.448-1.517-.671-2.405-.671-1.264 0-2.352.431-3.262 1.292-.911.861-1.366 2.299-1.366 4.314zm13.287 6.518v-13.438h1.781v11.844h6.656v1.594zm9.961-6.54c0-2.226.601-3.968 1.804-5.228 1.203-1.259 2.756-1.889 4.658-1.889 1.246 0 2.369.296 3.369.888a5.816 5.816 0 012.288 2.474c.524 1.059.787 2.258.787 3.6 0 1.359-.276 2.576-.829 3.649-.553 1.073-1.335 1.886-2.348 2.438a6.736 6.736 0 01-3.276.827c-1.271 0-2.406-.305-3.406-.914a5.888 5.888 0 01-2.274-2.497 7.539 7.539 0 01-.773-3.348zm1.844.022c0 1.613.437 2.885 1.311 3.813.874.929 1.971 1.393 3.289 1.393 1.344 0 2.449-.469 3.317-1.406.867-.938 1.302-2.268 1.302-3.99 0-1.09-.186-2.041-.557-2.854-.371-.813-.914-1.442-1.629-1.89-.715-.448-1.517-.672-2.405-.672-1.264 0-2.352.432-3.262 1.293-.911.86-1.366 2.298-1.366 4.313zm19.662 1.268v-1.594h5.688v4.971c-.875.694-1.776 1.217-2.706 1.566a8.04 8.04 0 01-2.861.525c-1.321 0-2.521-.282-3.601-.847a5.592 5.592 0 01-2.444-2.448c-.551-1.067-.825-2.26-.825-3.578a8.29 8.29 0 01.82-3.656c.547-1.132 1.334-1.973 2.361-2.521 1.026-.549 2.209-.824 3.548-.824.972 0 1.851.158 2.637.473.785.315 1.4.755 1.847 1.317.446.563.786 1.298 1.019 2.203l-1.639.44c-.201-.684-.451-1.221-.749-1.611-.298-.39-.724-.703-1.276-.938a4.69 4.69 0 00-1.843-.353c-.81 0-1.509.124-2.099.371-.59.247-1.066.572-1.428.975a4.632 4.632 0 00-.844 1.326 7.027 7.027 0 00-.511 2.699c0 1.195.205 2.195.615 3.001a3.946 3.946 0 001.793 1.793 5.528 5.528 0 002.5.585c.766 0 1.514-.146 2.244-.441.729-.295 1.283-.609 1.66-.944v-2.489h-3.906zm8.631 5.25v-13.438h1.781v13.438zm5.006 0v-13.438h9.719v1.594h-7.938v4.094h7.438v1.594h-7.438v4.563h8.25v1.594h-10.031zm11.89-4.313l1.688-.156c.079.672.264 1.223.553 1.652.289.431.738.778 1.348 1.044.61.266 1.294.397 2.056.397.676 0 1.272-.101 1.79-.302.518-.201.903-.478 1.156-.828.253-.35.379-.732.379-1.146 0-.419-.124-.785-.372-1.098-.248-.313-.652-.575-1.213-.788-.359-.14-1.155-.357-2.386-.652-1.231-.295-2.095-.574-2.59-.838-.643-.336-1.121-.753-1.436-1.251a3.069 3.069 0 01-.473-1.674c0-.679.192-1.313.578-1.902.385-.59.947-1.038 1.687-1.344.74-.306 1.562-.459 2.466-.459.996 0 1.875.161 2.636.483.761.322 1.346.796 1.755 1.422.409.626.63 1.335.66 2.126l-1.719.125c-.092-.845-.4-1.483-.928-1.915-.528-.432-1.306-.647-2.335-.647-1.073 0-1.854.196-2.345.589-.491.393-.736.865-.736 1.419 0 .481.174.877.521 1.187.341.311 1.231.629 2.673.954 1.442.325 2.433.61 2.973.854.785.359 1.365.814 1.74 1.365.374.552.562 1.187.562 1.904 0 .713-.204 1.385-.613 2.015-.409.63-.997 1.12-1.763 1.471-.767.35-1.629.524-2.588.524-1.215 0-2.232-.177-3.054-.529-.821-.354-1.466-.885-1.933-1.595-.466-.709-.712-1.511-.737-2.407zm14.056-8.991c.4 0 .79.103 1.172.308.381.205.678.498.891.879.212.382.318.779.318 1.193 0 .41-.104.805-.313 1.183-.21.379-.504.672-.882.882a2.416 2.416 0 01-1.186.313c-.413 0-.808-.104-1.186-.313a2.217 2.217 0 01-.883-.882 2.392 2.392 0 01-.316-1.182c0-.414.107-.813.321-1.193a2.19 2.19 0 01.892-.88 2.444 2.444 0 011.172-.308zm0 .391c-.336 0-.662.086-.979.258a1.849 1.849 0 00-.745.735 2 2 0 00-.27.997c0 .343.088.672.265.986.176.315.423.561.739.736.316.175.646.264.99.264s.674-.088.99-.264c.316-.176.563-.421.737-.736.176-.314.263-.644.263-.987 0-.345-.089-.677-.268-.996a1.833 1.833 0 00-.745-.736 2.03 2.03 0 00-.977-.257zm-1.049 3.304v-2.563h.885c.302 0 .521.023.656.07.135.048.243.13.323.248a.673.673 0 01-.082.862.801.801 0 01-.536.233.695.695 0 01.218.136c.104.102.23.271.38.51l.313.503h-.506l-.23-.405c-.182-.315-.325-.515-.431-.597a.534.534 0 00-.332-.092h-.243v1.094h-.415zm.414-1.445h.51c.243 0 .409-.036.498-.107a.345.345 0 00.133-.284.347.347 0 00-.063-.204.39.39 0 00-.178-.134c-.076-.029-.217-.044-.422-.044h-.478z"/><path d="M46.918 0c21.028 0 38.177 17.151 38.177 38.175 0 21.03-17.149 38.184-38.177 38.184-21.023 0-38.18-17.153-38.18-38.184C8.738 17.151 25.895 0 46.918 0z" fill="#FFD100"/><path d="M135.355 124.456l-19.657.027-.02 64.82c.02 2.293-.045 6.944 3.617 4.605 7.624-5.25 11.009-23.78 12.174-27.27l4.382 1.617c-5.05 18.527-9.762 43.508-33.624 46.607H69.019v-5.319h8.503c-3.632-3.061-6.917-6.832-8.503-11.026V91.763c22.198-7.391 40.227-29.487 46.66-52.21l.02 78.078h19.657v6.825zm-66.336 90.407H0v-5.343h12.469l.023-115.727a80.457 80.457 0 0025.869 4.27c4.319 0 8.557-.343 12.702-.988 3.354-.371 6.531-1.538 9.41-2.167l.031 22.722h7.468V92.1a9.933 9.933 0 001.046-.337v106.754c-.652-1.691-1.015-3.459-1.015-5.288l-.031-68.773h-7.468v85.088h8.514v5.319z"/></svg>